# xmcd CD database generated by RipIT
#
# Track frame offsets:
# 150
# 7065
# 26720
# 34507
# 47367
# 58712
# 76217
# 84660
# 100712
# 123700
# 139050
# 159270
# 167850
# 184650
# 198330
# 210247
# 228955
#
# Disc length: 3142 seconds
#
# Revision: 1
# Processed by: cddbd v1.5.2PL0 Copyright (c) Steve Scherf et al.
# Submitted via: RipIT 3.9.0 www.suwald.com/ripit/ripit.html on 2012-02-16 at 10:39
#
DISCID=d20c4411
DTITLE=Klaus Brandl Chris Schmitt - Polarbears don't cry
DYEAR=1993
DGENRE=
TTITLE0=Visions of A.
TTITLE1=Great Western Blues
TTITLE2=Brother Gedon
TTITLE3=Time will tell
TTITLE4=Backdoor Boogie
TTITLE5=Waiting for a Plane
TTITLE6=Il numero di treno
TTITLE7=When my train left your station
TTITLE8=Greetings from Berlin
TTITLE9=It's not the pale moon
TTITLE10=Coffee and cigarettes
TTITLE11=Polarbears don't cry
TTITLE12=Stay with me, baby
TTITLE13=Do you really want me?
TTITLE14=The very last steam engine train
TTITLE15=You can't
TTITLE16=Visions of A.
EXTD=
EXTT0=
EXTT1=
EXTT2=
EXTT3=
EXTT4=
EXTT5=
EXTT6=
EXTT7=
EXTT8=
EXTT9=
EXTT10=
EXTT11=
EXTT12=
EXTT13=
EXTT14=
EXTT15=
EXTT16=
PLAYORDER=
